<mxfile modified="2024-04-27T19:42:44.735Z" host="app.diagrams.net" agent="Mozilla/5.0 (Macintosh; Intel Mac OS X 10_15_7) AppleWebKit/537.36 (KHTML, like Gecko) Chrome/124.0.0.0 Safari/537.36" etag="bV4iWpkB8mAoNIZmtjf-" version="24.3.1" type="device">
  <diagram id="Ht1M8jgEwFfnCIfOTk4-" name="Page-1">
    <mxGraphModel dx="1242" dy="1559" grid="1" gridSize="10" guides="1" tooltips="1" connect="1" arrows="1" fold="1" page="1" pageScale="1" pageWidth="1169" pageHeight="827" math="0" shadow="0">
      <root>
        <mxCell id="0" />
        <mxCell id="1" parent="0" />
        <mxCell id="wKkd2Ftk299Nv-PwKDOf-36" value="&lt;font color=&quot;#545b64&quot;&gt;&lt;b&gt;AWS Cloud&lt;/b&gt;&lt;/font&gt;" style="sketch=0;outlineConnect=0;gradientColor=none;html=1;whiteSpace=wrap;fontSize=12;fontStyle=0;shape=mxgraph.aws4.group;grIcon=mxgraph.aws4.group_aws_cloud;strokeColor=#232F3E;fillColor=default;verticalAlign=top;align=left;spacingLeft=30;fontColor=#AAB7B8;dashed=0;strokeWidth=2;" parent="1" vertex="1">
          <mxGeometry x="50" y="-780" width="890" height="597" as="geometry" />
        </mxCell>
        <mxCell id="wKkd2Ftk299Nv-PwKDOf-13" value="S3 bucket holds Parquet data" style="shape=image;verticalLabelPosition=bottom;labelBackgroundColor=default;verticalAlign=top;aspect=fixed;imageAspect=0;image=data:image/png,iVBORw0KGgoAAAANSUhEUgAAAMAAAADACAYAAABS3GwHAAABdWlDQ1BrQ0dDb2xvclNwYWNlRGlzcGxheVAzAAAokXWQvUvDUBTFT6tS0DqIDh0cMolD1NIKdnFoKxRFMFQFq1OafgltfCQpUnETVyn4H1jBWXCwiFRwcXAQRAcR3Zw6KbhoeN6XVNoi3sfl/Ticc7lcwBtQGSv2AijplpFMxKS11Lrke4OHnlOqZrKooiwK/v276/PR9d5PiFlNu3YQ2U9cl84ul3aeAlN//V3Vn8maGv3f1EGNGRbgkYmVbYsJ3iUeMWgp4qrgvMvHgtMunzuelWSc+JZY0gpqhrhJLKc79HwHl4plrbWD2N6f1VeXxRzqUcxhEyYYilBRgQQF4X/8044/ji1yV2BQLo8CLMpESRETssTz0KFhEjJxCEHqkLhz634PrfvJbW3vFZhtcM4v2tpCAzidoZPV29p4BBgaAG7qTDVUR+qh9uZywPsJMJgChu8os2HmwiF3e38M6Hvh/GMM8B0CdpXzryPO7RqFn4Er/QcXKWq8UwZBywAAADhlWElmTU0AKgAAAAgAAYdpAAQAAAABAAAAGgAAAAAAAqACAAQAAAABAAAAwKADAAQAAAABAAAAwAAAAABu8xvwAAArA0lEQVR4Ae19CZxVxZV3Vd33Xi+szb7a3bgiiEIviho1iTOKyZgV45hEmkbFZXS+JG6DCpcmOC6JcfSLDgo0mMxMlETNJEH93EDjQi9AQFCJQLPIvkM3dL97q75/Pbqh6X637lvufe91d9WP5r1XdWv733OqTp06dYoQHTQCGgGNgEZAI6AR0AhoBDQCGgGNgEZAI6AR0AhoBDQCGgGNgEZAI6AR6KwI0M7aMa/6dcucomD/7NCALMEHcWEPRLmDGKcDeID0Ypz05JT0ZIL0EoT0JPhOCO1BhcjC9wC+B4UQQYAcRHpQxuG7LQgNEyEsfA+jvLCgJEwRh2eP4PchKsghxMnPg5zh0+aHCGV7ELeTCLLDYnznsd3hHb+4Z1W9V/3squV0eQZ4eGFpX0vQAk7tQmqRQspoAYisEMSWD3AG4TMPxJmROIGp6sFsO/C5FQRcR5jYKATbSIioC3Oycfbm6i+JSXhXJe5Y+p2RLzaWhsf5DDUrL8gnJHAu5WQUiPxcEM25IOtzMEpj1O6cATOKnGHW4yWvEYytpdxeyxlfu/fgoc+fvuuLxs7Z6/h61ekYYOJEYoz65rhRhLNiRkgJxI0iDODnoqPd4oOm8z4tiLDRu/WY6VYwSqoFJzVHRGj5Y1M+ONx5ex29Zx2eAczKkkGQlS/HiD6eGrQEL3UsOpUTvbs61hEBATag4nMITNWUkSrbIkvNm2rW4HlA23lDh2OAaXOKBmeH6OWQda+ghriCCHp25309ae/ZHizWl2INtLSJ2EtmTa79BC3qVAyR8Qxw51NnZPXr0fsyQdkELPgmUEoht+uQJgT2gPrfpFQsDtjWG9PKV+xOUzs8qzYjGeC+OUW9uoXINyhj3xaCTkBvu3vWY12QNwhAZAIzfATx89Umxl/5eVntem8KTm0pGcMA0LfnDgvRawlh12ORdjVG+qzUQhG9NrzkowBpB9Sh2ykROyAj74B2ZT+YE7p6fhBapYPQMx7CYvIgt8hBKyCOBhpJuAn6/RD+juJvP/5Qevi5qbXWFeYVxtieXwStwNDg4F4iKJoaAmHCghb2CQKBYBZhtCfK7CUY6YW6ehrYY+CC4bfohbQB2BMYDBl9EBb3gyCa5EVvdepjMTsv51z8ronS380ur96S+hYkVmPaGcCcV3Qp1JJlUEdeB6LvkVg3Es8FAt8LOXcDPtcTTjdQg2yA1mhD2LK3hS2x49GptQcTL93fnFI87JnbY1DQoIMZYQWEkRFYyo4AY5wuKB0BohyGvkAZlsJwfGZ4F5t+lQf2bX/5Vz/dijEgc0NaGODeeZf06GE03sgFvQ1EPyoV8IDAN2MEX4Wd20+wcP6U2GTt3nq67um7lh1KRf3pqGOiOSp09vCcwgATI5nc++D0XLRjDP7OAe5Bv9uEmXw/RNhKYlvPmjct/8Lv+hIpP6UM8MDC8UNDxP5XjExT/dyAgoiyAWBUQz6t4VTUHDva+LdHbl8NSUQHiYBkjFH5udgIpEVU8GLMFsXQ7ZzvF1OAEQQV9H8J5Y9PL6v5IJPeQkoY4IH5JcOzqJgGe5ZydB6isZdBWEKQ5ZCPl9o2/4A1Nn1k3rZql5c1dIWyfvLEsJy8vCHFWHtcDKK4DDR7qR+DFAan98AQM8zJNUsyAVdfGeD+Z87Ly87NeQhC6B3orGeED3HmE/y9SQR/a1fD0feeuWONNCLTwUMEIjvqV5eOZURcCaa4EkVfihnCM8UEGOFti9OfzZpS9TcPmx13UX4xAMXidipjbDYWYX3iblXbDEIcw6LqLWhb/gQjr9c6kpahbVc66u+7Hx/TrXv/0NdhCfsNaMSuBTMMSrovkd1nMp9bDfeZN63Zl3R5CRTgOQM8OK/47GCAzYf8fXEC7TmZRYgG6C/+YhPx0pFdTa9p09+T0GTAN1oxb+xF3AhOhGIBf3RYMm3CbL6LcHHXjPLqF5MpJ5G8njLAzIXFUymnT2DUz02kMZA75ebK2yD8Fw7tanxFE31CKKY6EzUXlHwFYu6PUfF1yawbMLP8pt4K3pFKozxPGOC4uULeHEyLkxJCX4gvQfnzSJjPM6fWbk6oDJ0p7QjIzcyhBplIAsZUENb4xBrEP+UWvzZVatOkGeDOpy7s2a+n+AsKgtYgvgDtzTKM+r96d3O3Pywxl1jx5dZPZzICFQsuLILuU6q8/xmzAk7HxR7k/gHlfML08tplsedK7MmkGCBC/D34Oxj5i+KqnpJ3OOezMkUVFlfb9cNxISBV4EFG7wUj3BynFgmaPX613/sGCTOAPCs7LNt4HRsoX4sVEai+qsHd92rCjxWxzvOc+fyYYSyUPROL3bJYzTPkTIBl4cXm5NrP/EIiYQbAwudxRujdsTQsssq37Htn3FT7Ap7HTx26KgIPzSs9PxAgz8SqJcSgufbA/u3FftkUJcQAFQuKL4E14vtQf7nmRwdexBR4x7RJVXu76kvX/W6HAJ21sOQuGO49AhLKbpfaJgIKkifMyVU/axPtyU9XAo5Wy8zK0o9B+hdGS2uJA+FLdx//YpZVP9cSpz81Aq0RMBeOG0O58QrWBiNax7f9HqElQc4xy6uljZengcVbmjm/5GI34odmpwE7txM08ceLbtd63py0fFVQWBdB1l+h6jkYBD6VqDSn8TzEzQAwOoNaSxHkZhYT359RVv224imdpBGIICCPVYpG/o/4sVEFCXacb1ClJ5oWNwPgPOhXVJVxSp+ZManmNdUzOk0j0BoBbH7ugXZocuu4tt8xCwx6cEHR6W3jk/0dPwNwkq+qFF7WnlKl6zSNQDQEppdXL4XwsCpaWktcUJ568zjEzQDQYXZTtSHcZGlbfBVAOs0RAUoNJe1graCkPceCFQlxMwDO725TlEdyg+y7qnSdphGIhoD57JgBON+htCBmxPgyWt5k4uJmACxxv1BWyEjF7OdHD1Q+oxM1Am0QoDnZT0LTo7QibmhoSL8aFDt4Sv8v0jacB3Jel16X2/RR/9QIREXArCz9JTak3LSLB/w41x33DAA1qJIBZA9xyPoCS5Dqh+YWj43aYx2pEQAC0piyYn7Jy/Cp9FM3QLD2dKU7tzKipcfNAJzyWKehwoBBP0IHH5TnBaJVruO6LgI4PDWhf0+xEgPqd2JBgTH4a/IhxM0Adjh2ToyYvzI6q3+PvNXT5xd/y4f26yI7GALyyGxFZemrVLDFaHphrM23fZoB4jqoIBtrGBZ27OJ08EDpmQFKX51VWbIcHZltTq5+BUVhVtOhqyBgzi0eTQNsGl47jk0SI95+w12kLzNAYsZwC0r3IGPii1z4oUf+Z+vrj73gx8ImXnD18/4gIF2rjLym5BqMsrfDMPKqWKyHnVrCufV1s3z5O07picbHPQNEKpKe1yhNnAHg0x/D/5O5OdmPVMwvfokTvtDcvHwJ0fdZJfoeMyqf+VzpWSQgfojF7WTQyXDZuIRG2ta9in3t2TqX6/fEGIBEpqMS19LdHpC24JTeCMeuN87ML9lBFopFULO+OL2u5iPNDG7gZVY67mArYDR0HXZrrwexQ/uXNMmf6KA0h16zeOWWExEefkmIAeBkdT28KHsapLET9Kd3otA7ZxaU7qLz+es4dLNY0PAb5uSVBzytTBeWNAJw8x742mn1l3AiroGr+GtA7qNloRBzki67XQGUblq0CO6MfQgJMUDEhbgPjWkpEhAOIIzdiE/8Ba2ZC0urhEWWUMaXfNkkPoCf/YaWZ/VnihAwCTPzS8YYDPexcfpVQeqvwOzdC8difW8AHPj6sgCWDU+IAWC1t17pdp6STTjG9ifpBTpymCEpiGgAYtHFYDrYibBpQ0MiPHNBaQ2m2g9wqduycNiunn3Tik1JVaEzt0MAIk1vnEMpwiUdpXBUdjF0dpeC4HvDlU1EuvFqpId48x5YaDfK/l67RjRHYGN1vVNasvEJMQBpwiJYsbUFkPqZZVV3wn77yZBgD2KQ+BFQS6yuNj1sZqjxeAHjITKRrAAjMytLdsNIDx4naK0g9irLIqs/f73mC7+mzTZN6vA/zXljh1BmjGKUjrEpHce4KAG0ZwBjiks3jgePB3oQ/sfgpZlQib9eUVlSqQLRLxWorDOxbmE6rCgoPYr8jhsCRrhh0AM3f7JTVhLxDWOQ2+Ej/mZUmLj2SBYWe2jCTPUZLoj+BDPIWpwo+jt8EX1BqL2hK64p5G583x69CmFyfDquWToThH02Lh4cjVl6tBzZY4c18Scxa9tgqlcwmzw1fXLV+y0lYQB7DwPbV1p+t/0EM353xqQquXfkeUhsVIa6UiwQdejMWU4tsllwBNIiDNDszfnf4IO+olffIT+kXNyKDhc55fUoPgQxbQyIX96IgoDBjMmVu0Ew4uzD6LMeM9VGRGxhQmwlBt3Gbb6NMHvrmk3hbYvMNU0yVwcJFBa4A+xgt2GW4EMMJobgSoph6PtwDDj56AOuTCLDIiO67BAEeRkiox8Geb8DRvsdqKyyiZNnZ5dXtdPmoAWSVhwDZvTMWgPIlgJc7AUQRwYggcDpeOyj1r067ttl61zEzX2osug8g7EbML1dD2YoaP2c79/hsh2g98G7b1blHicCZhxnkNEFQXFeZclByJ64J5fshQy8FwyzFwwjNwD3MkEO2YTXQ2Q4ArGrHjNNPW6mP2Jxq54Q65gwsiwR5lb3ILcOHbOseivXbsyyrKzGg3bAOsaCvfIDuazeIE1GgIRYgFiNgTA1DGqEQtS2uwcN1h3alW44ftpNENYNTga6o67uMEXvA+D7oQ19UW8f4NQX3/vhPfS1IyKmINhxl9aIzcR9EknEpjocQR9eRR/++9267m86ub4sqyzIRnOHqNrXSIKZxwByBFU1GoSj5OpZk2tX4438G/6mwdPEeHzikjzyT2AGZb5UvMXISElJb/SvNyjpDPQlQlAt/cULgwRxchSNKATAOyHQ8wm9QpZBLMw2ublBkisLkLv/WZJmZZCXRkJ6bFlHBbObv+I5rGlkOK5daSHk4zVjnYOU5u+RpzLrP4z0B2G09v8wUPx+/77tf4rFmdUwq08hDTpPQyhzt5/eohMTgeQLEmI9RkjHNwAQYiVkAX8vH6Ig+fd/pLFUFiXXCGZcg6HsMsSBUnTIVARAoKvx9xoYdjGcHH/gNNI7tT8YDLjRiW8aINmmhBkAY9gGZWZKpQgUd/j5lJrPkUn+/UreStKjX+hiMNplELm+Ana7EAs2V09icVeqM8SEABax+BdRKLyPb+8JYS81p6zYFlNmh4egnACdKAZSRn0Tf2STlDTs0OZINFxfqxsmhBtnq4qPpDVfkPEmfsi/47cbnpZbjDXceGB2IVzrjYM4MuLE4i6SS//nFQIQyOQdysux8VXNmfiY2Q0feH2VEce9xhCbnMPxGz+d05NMSZgBju4Jbwj2h1zrFCgZLBc4CybXHXN6JN54qZlZdFxUkuJSJNw3p6hXbnZgHBN8HDbfcKkbGQXfRGdjTMlpeUZ/uiCAVTyIvQ4S7VpOyEqsw5Y3hcPLU7HBCOJXSwp27OdPXHoZNTlhBpCjM9SJOyGSRD0AL0flApGHWaBubdSaPYpsvsn9XRQn/1oCxU5mPmWBkVC5jiSCnQ015xl4zSMwc0A16LUlU0u1mf0JIt8FEWYjbn2EAoOvw77Mp5zan9WJfeu8HKjiQUGuFRVLSak7UEsa8VQW5dmEGUCWJXA+GLJ5VAaQ6ZxGVKG+MoCsJ0oQ2OyqQ7z8ew1/J4I04rp06L7hwVBOAbF5AVScw7HdPxSMMRji1GA8CKM8MhCjoO83qZ9oVJJfmmXzPShmB2Tq7VCRbkd/toG4tqIfmwQPb9wWZnUZaUNFaaGq+2EayMxFsGw0Vv8bMJo6+nIJspg1QSoMPE2TWoolx/1QblQUTM05RX1ZFhuIzbE8zlieYXPsG9A8iFd51BB5uAywBya57iC0XMws0mGTdOkh/3IQF8LAIB26GgApgJHXgEhmNH+CPiku9xZQ3VMLz+MiTJj6ESI33o5BhGtAHQ0wAGuAPr+eM1KPvIfBnAeRa58IsP1I2y8434+JbB/2EPZs48GdIG6pW+1QIWKCoRJVcT3u7LKPklpkuwGS1AxAbRgpKZYBtp15DOAGSHO6iPirJESOqjr4hgCDiKwIVMhBCuOGfwEDTuJBuMhnjEoVlw4agegIYJZU04e0NvA5JMUAjHC1fAYVpc/t18V3YARgqKikDyzWM5sBjjWq9wJgx1KA9wMRVgeNQBQEXNaI2F1WD7BRiow3KqkZ4OGptTsgoB11qhSUn/PAwvFDnNJ1fNdGAAoUpQgU9skVSmvUk2IAFCQ1cMppClfgKDvZujH6e9dCAGcRlCIQE1ZmzwDydWGUVzIAlHzKTnatV65724KAtPOCGthxD0mOrAcP7JZaIF9DsjMA9pBctqoNl5W+r93ThWcqAjn9IgemnJsnyPZYzKmdC4gtJWkGMIiLtV4G2PfHBoV+KpUIGDilpqyPutCVMnPsiUkzAE5GKeU02OJoESj299FlngThqekC501SAUZSO8HHG6heBOMZNaenopdprkPaH321oP5yrJguIpQPxHndg1g7fSashte8Ni9Oc1fjqJ4p6QIGcuq1ZRw1qR5NmgHqyN66QtIfpirRbfpgP9P/9l+P6v7MHWuOqBrSWdPMhaU3MVFfAeKXhnbSgvDkxoiRG4af/P8U3JreBT1VqGeAFDEAZqLkQrMZrfLysr7Z3ZTcnlwLMjP3RHNUCO4+focD9M+fIP42TZUWp/CTfycjwaoHKy88s01yZ/+ppgnLfxWoBDhpBoi8JRebjUDARd7rhK/6vMJuz4LAfxBT13B/Qojw18y5o1pOzceUrcM+ZMoz/zRf1X6Dh1MiAnnDAFStCqV21zKKmz6/9CpsEZarXnC7NJyhpqzbw+3iO2GEObhoGLoVcuoarAvqW5yqOT3jVbwnDEBdtqwh9o7wqsEdoRyDiocSaicTN5mVJYMSytuBMtHsyEEp5xa7WBc4Z4w/xRMGwK6dUmUFs9cuwwCRC5+pdOQbf4AiQR6c+af4c3awHC4mEDjVpqQnL3vrCQOgwUp5DW5N1AseL3uU5rJYVtZIJ41YLE3DMcZRsTzXsZ9Ri8ScMCU9edl3TxggQFz8twuRT+TCpwsEXCObl0w3oUz+h4p5Y8cnU0bG53WRCAzqQk8edtATopxWvmI3zrgedmqXVPeZ+Rec5pTeqeIF25VMf4DVucQIfggV6lKzshje8U5uGyRTbkblperNUVv4fw6gBY+kN8JaCsL4vgGaj/NP/G77RURO/9S1je5svxtEaHV3EpYH3B21HLH0GYxwGUSpy3AZyCdE8MdwM87vOuLB92h9jawJsdhxDOHU2AHJ+j2ZAWRB6I9y4SL90svnOnuIOHIVfLFX/QSuo+F894VhIba+orLop/fOu6SHV2WnoxzpyAx7AM77HXDStWZbfV2q2uYZA8C1mHLh0pVUoZzxGTBn556+RHndKDV+2Y01bTHnFz+Kk3ZDPS0/RYXlBNXiDxQmW1N5N4NnDAAnU8oZwOhCRnHmpOWrsJi91w+agmjUizF2b4hbG3HH8sKH5pU6i51+NCDZMg06QlkEV9ORMm8Cid4xgBFQzgAcTlATaF+HzfJQWfUv0fj7PJ8JmhGRigV5k2bQICuxYH4LRnUTkKSSrDMCS9zToxaFU2QE1wKGdwxgudhudEEXKdPLqh7jnF4IJngDm4V2C+gtn9CcraWc/xSfb7fEJfIJZvg6jOoWgxHWghGm4iqqjHUMDLMY9UCYQg2QxNqzEeOWOUXBoVnsqNzNdHqJDQ1H+zxy++r9TumdOR6uFvvhOqRiXFA3kBhGQ5jzVc13IUS6bc4rLWZM3I8f38EiMamBCbY0e2F3/VwTDfx69qSPlJa6qcZczlaSYZ3qhZvJ62eUV7/olO51vGcMIBuGzm1E5wrk9+iBFk8vW1YbPU3HSgSkWTR8qt5DOL8RWLZcopQgOMKCcuL3cD/6H+bk5R8nWIin2SoWlEpRudCpUBwsuR83Qj6GdPCx/8FrBlByN/r0g+ll1S/5362OX4M0isNC+i7ozG/DjJD0NaYQs6oxrzy1emPDS6nUsrR+E80n446ppAT5PNr6MS7luNOcUlXTOr8f35Oaats1iLnYcGgXKe0gc4rABdI7ZpRVT9vR0DAcGrafQFjd5PRsLPGYTUrgbfo35+XnbjYXlMySdzfHks/LZy4tOJzvRvyyPrT1IoiDyyoqi5+VN9Z72Ya2ZXnLAG5WfNpFSlv8XX/Lo6TTp9Q8+c7GXFzwwW/A6JicCAlfPDiN8mCIEahRS17GDZ1XohGeSgJOnQoKFxVo64xyHUTZrTgt91nFgpLrWid5+d3Tjs+sLJ2IadtZxKHknemTqhwXQF52rDOXBcK9HCT7M8jL38SImvQ7hIZqHW5gfcbm4YV+nk025xXdiruYn03o3VDxMm9ovM28bdWuhPI7ZPJ0BsCdD8rNsMgVRQ4N0dGxIzC9vHrp9MnV14omeg6I91kIzQ2x527/JJjoLHiqeBKj7ZczK4vnmguLS9s/lXwMDRgjEi5F0O/SnOzV5vxx30y4jCgZkx49Wpcp5TVGQ45qTqkL/7KR53QWo67WfU/nd3mWmNHcW2DZ9S+YEDwxkYAlxyqYrzxPuPVbr2aFioUlf8A65LvJYgXN1hPbmuz7vaAjTxlAdmzmgpJ9GFEcbeK5ZZ1p3rT8i2RB0PnbIyC1LF/LP/J93MH0r3Ih2f6J+GOgizyKzbpFXIjnzSm1f42/hJM5ZlWWrICtzwUnYxL/hrXQe3C8/H1pip94KT4sfsAA1WCAYqdGWZxcXVFe9YZTuo73BgEpxuAes7vACBNRYlKm2SdbxD+FAfECbod/m8gF2VjMHgTJ9TxZXnLfwAQbRJhOMG+pWpdoSZ6uAWQjYAOptAnCrXGJy4GJ9rIL5jMn1VTNmFz9IyPccBreygz8bU8eBjYSZTzKWGALrsh9HebZN8RqdhHZCVcQP4gZl/yJH+BzW6ztBHOPoCHyvjm3eHSsedo+5zkDQHmlXgh3IavQtmCn47d0L4LNx4qtjTxfEhgWzEuSbkdERUmvgtXLf/XOG7yzYmHpPOwtXIZynUXqbLUKFBk3y03SPYfZSAyic2JtI/INYAZ968EFRWojO4cCPWcAyHjKGQAV6hnA4WX4GS0XjJLAoD36KufhUZyQ/wuGOJRsnRiFe0gfSFDaLwUjbJRnFbCL3U7Op7b6HADaEhk4n75r2aEZ5VW3ci7+AUqTrTG1D3sbQcH+nMhhIc8ZAPK/egbQN0fG9E79fMgsX7HWLKu689DuxiGciKmCir95Up8g+fKsAqN0BTQ+n8kd5xPnFdwuxKOn0o1ZXv0WnAefD+b6YyxtAyOe0501PRXLs62fcZ6yWj8Vx/cH5o7NzwoE65yyQMY7DNnUs4WQUz06Pj4EpCcKYQRuhhRzHYhCXvztXZCuzhmxoAI927FQLu7B/sYvoqXDgO5eiG7/DhWv64CNmeMSMM+H0cqJFudaYLRMqrh1b6zYenxBE/0pOWU+PH9s/+ipOjZdCEyfsuIj2B6V19vBwZFZAcZznrVF+oVSET8q4oqDMJFzFcL+ViwbftjRliblMQfPGWDRImJjBKlTtaCpCznKUuGQiWnyUL9ZVv0cZulSTq3zBeVPQxZ33Nz0rA9MDLn/mfMc94/M8uV/xux0NfYl6pV1UjIhnrWA5yKQbJxUkWG6usqxocL+4fTJtf/tmK4TMgqBssqC7ELR7zuwOioDEV4ZiyiSSAfAaPhHPkfeWpiBrxSMfhq2+RfH9jVt/cU9qyKEf9wwjqoPzHD7ounltctiaYN3foFOrU29EOZuGoFTC9O/0ovA8Tsg6v4Hrfgf6Y0iROwfES5+DHHWUzeOUKDgHzkH9ZyDzx/K0TlkMBLqn02wDmjC6B8Gh+S6jdrCULhdaQOlLwyAbmxAYx0DddEIOGbUCWlHoPmI5aNoyHF1JwgVl4D8M2jXExskRQdDIHzsaLuRPxSqttipKOeUJF8YwBZ8PXM+GizPuiW0aXFKy/WPtCOAQzsr0YiVxCT3mQUll4IR5IUg3wMzDExX46SW8eCBnTDZiC34wgCEwVu0YgoAD4+IrXn6qQ6BgEm4SarfQ1vfmziR3DX6mxdehjPN38N7/nYKZoZTIaLkt/HcL+w+n5xafEy/5KV4g7p1c3SWKxc7G8Xu3Ob7xWIqUz/UIRGgMMorwS7xC25qUE96J8TOAKOjpk2qgleM2ILnalBZrTzGhwnA8eSOXOwMs/oUxtZE/VQHRkBIozyMd7C88DdIeuOCXxMP8csW+cIAka66XHMTDAa0GOQvTWRK6bg/haoHOyFeB5PEvHBt2zGclX43TOyLzfLa5W3T3H77swY4XqtUhToeygAqeiHs9nY6QTrUpkOglsl26gpG7qPYdLsG6UKa0YSCwXHwHjcKO8OjICkUgk6G4ZkBULkGW8rAbynirIMo/QGhYpFZjlkmweAfA0gXKdjXcApdzVeoEw6dPT6L2yOUmsvjkkKEUGbftGIT8JB/r7TFRXoe7HkoHKqp79O4xFxitU1P9Ld/DBDGRccBw7FdjGlVqCM4nSgBxmmnw17fsUdIUZrPt2RsPv+LQzPeBt/WANQwlB3D5KDXAN6+y4wsjQYiNwM5ts3tXgnHjB4l+MYAOHShNIeAIqgQfXAeGjzqoC4mvQhATleu9Yw25wBS3VrfGACHprdjDXDMqUOg/Bxz3tjBTuk6vnMgQLn6DLjKDDoVCPjGAGi8XAIrxSBoYbUYlIq3nN46lDOAmzM1v5vuJwNAylEzAExeleD43Xldvr8ISIsAqC8dDz9Ji4A6srfO31aoS/eVAaDqVM4AQluFqt9OB08d0D3LbYb/Mt3mML4yAFSdyoUwZgg9A3RwIlc1n5KA+v263CyqKturNF8ZgHNbOQNARnIbIbzqpy4nDQgwoV4Ax7oH4GfTfWUAy1bPAOiYeoTws+e6bN8R4G7vV7jSh+9t9JUB6g/vqpMLHadeYAQYcPfjY7x1weFUmY5POQJQcqhneMrVEkIKWuwrA8iDCQBB6esxp19QDVIKQNBV+IMAvASqZ/jOPgNIWN32Agy3adKfd6NL9RsBE6b2QuSrqgmQTj4DyM5DzFFqgjAF6RlARSUdNO2BYWOHtzZhjtKNI8n69o9SZtxRvopAsjU4rOAi5zH1NBl3l3SGTEAgyNTiD/yRKgfGVPXBdwYghsvVqXoGSNW7Tm09hvrEn5tkkKrG+s4AMdh66BkgVW87pfWorUDTbQbdAoXvDECOWWoRiNJ8IhdMOnQuBFwuRacuZjKpAsN3wmu+1/WIokMhuWBSpOukDoiAm5kL7MC6yBoALw9eMZSzQCgYGtEB37FusgoB6qLds8JKmlAV7WWa7zOAbCwVp97+0a4DLjYj7Z7XERmNgLwvGh4dHF2dwzrA3mbTTZnQiZQwAHc9GKNeMGUCULoNsSPAaJZasSHIFi8uuY69Rc5PpoQBsBumnu7cbEac269TMhABOKh1E2kzQv6X0KWEAbibCKTPBWQgGSfeJJwDVs8A0mdUhoTUMIDL1amuVoMZApZuRmwICBdXKNRSK0Viq8Wbp1LCALuarDqpCnJsMqV97ptT1MsxXSd0KATc3F7i6qOuJQJFFjyMblG9xZygPhyjwqcjpQkXVygwkutaIlDzy1NzvaGPR3YkIndqq/ThCaXHcKd0Gc9Fo5oWVJk9TkuJCBRps4u7dEq0VajH7zYtxQ0xRD72AAynyrEHsN+cvPKAU3qq41PHAC7ng+ESe0SqO6/r8wGBgOsJv4wZ/WXvU8cAhnovQGhVqA/UmPoiKedKFShUIRkj/6eUAbitXvhgYaRngNTTq+c1Cqa2AaIuvqI8b5BLgSmbAY41HlVOfZANT7vCvMK/+wpcgNDJ3iDAXC5Bx0H5rjkDPHL76v3YC3Bc/MiF06UFh5WHqL15RboUPxEQhnoGILbL+RA/Gxel7JTNALJueIhQzgIBN1d6UTqgozIMAa5mgDDPjLPALaillAHgK1Q9/dmWXge0vJkO+Pnw/LH9sZbr4dR0GMmF172xYqtTejriU8oAtssMQAOGZoB0UIFHdTa5OMLCQfi6RYsIyCBzQkoZgLqowNxsSDIHNt2SaAjgRni3AUwtAUQr1Oe4lDKA27kAMIgbgD7DoYtPCgHheuOPcg2YVN0JZk4pA0AEVAKAzTDNAAm+yIzI5rKZ6XZjUDr6kFIGWLN45Ra5EHLuKO1pzinq55yuUzIZAWj5lAMYz7A9AIllShkgsgCi6sPQTJtFZzKNK9uGRa7aDILg8vQMCyllANl36uIiRbgvpDIMQt0ciUBZZUE2RNghKjR2HWns4otgoIOtcPUooC/OU9FQxqYNs/oUYjcfk0D0APFo1zN3rFE5SIue0efY1M8ALqpQsIhyGvUZD118gggEg2pnuDCDybjRX3Y15QwgDJcZQLtISZAE05uNub839cyfpuannAEsy8UcwkWVliacdLUuCNjCZebOIFcorbuScgZoJEG3qXDonU+dkdW6kfp75iPA3PZwwpmnAZKoppwBHpvywWHsBex2eqVyIdU3t+dwp3Qdn5kIYJFboGoZNQy3gU+V3be0lDNAc082KnsUCFysTNeJGYWA+VzpWWjQOapG8SZ7kyo9XWlpYQCMFsrRAEZxT1YsuLAoXaDoemNHAJ6gC2iI/EV1IR5m/MYl23sor8uNvUZvn0wLAxBG31Z1A2JQHo5Ivm9WltyO5xx1y6oydJr/CJgLiq+lNFSDF3SGS21/XWIusVyeSUtyWhhg70H6EvT9h1Q9Bqg5jNJfz6ws+bhifsnlqmd1WmoReHBB0ekVlSW/Z4T9Ee+pr1vtlPD5bs+kKz1to2vFvJL7iUH/PdaOYxpdivXx4zPKqhYjD6QoHVKNwIPPjxsZCgXuhuvDH6tEntbtgkvYVZ8srhmXaQdhWtqYNgaQHiC+ml+/BEBe0tKYmD4FzpRyMrcxEPjN7EkffRlTHv1QwghIlXS/Hn2uxZhzM4TRK1XmDu0qEaKBE3KJObl6Zbu0DIlIGwPI/pvPjhlAc7LeB6hSixBfwNASmRUM8mKg6dirD9z8yc74CtBPOyEg/XsOChpfMwz6PTi6moiZt7fTs07x8hokwe1vm+XL/+z0TCbEp5UBJADT5hQNzspmr+EesfMTBkQyAyFVuGfgL3C9+ubq12prMnXKTbiPPmeEwmEQZtarsTN0FRaGVydC9CeaiJEfN8HfOKOs5g8n4jL0S9oZQOJy9+NjunXvlzUXi97rvcEJC2xBllIh3sVI9OHqzcdWLDLXNHlTduco5YG5Y/OzDGM8enM5RBsoGdhIT3omxBZC2Xemly2r9aQ8nwvJCAZo6WNFZdENgrAnsS7o3xLnxafUQ6OcFZglPqY2XykM9rc1mxrWdhGmoNDV5xMaGAMHxOdTg5XizEUpXvwAL7BtKQMDjcCZ7ud3H2H3PH3XMqWGryVPJnxmFANIQO5/5ry87OxskzF6K36G/ANJWCCEz/De1hDG1hFu/x0zxrqGY03rIl7s/KvYl5LlLJrTLzjCIOxMuCc8iwTomUKQkejfaAwojr56vGgMBpiPsY67d/rkqve9KC+VZWQcA7R0PjJFs8A0nDKahBeYYuM4cQjEswXgbMGN5luIZW0RAWM7t/luuP7YTSy655h1dDcYRbp69FMlS3F1VM+AwXsHabA/vO4PRH2Q1cUAYojBlLPTIGufhr3C09BWV318C7ZefYLwa2EFOquivOaPXpWZ6nIylgFagJj9/OiBdjBnKsjsFizMhrbEZ8Kn1HRg4X0YTHoE7ZOnnQ5jxD1CGa3HgjIMgrVwQ6YFGdtCPD6ZhZkGhpPUwD1ZBvIEGBUBLOFzMQvlRD6JyKWU9UDZvVF2L/Q5LZuVTvhG+kzoK9y2/8OcUvtXp+c6SnzGM0ALkBMnEmPUNcVXgXhuBFFci4bntKTpT/8RkBtaUFK8YAvyX9Dr7/C/xtTU0GEYoDUcUt7t2T/rG3Cz8S2cRPpHpGlXKq0B8uC7XNRihlpOmXiZc/GyObn2Mw+KzbgiOiQDnIKiSZhZWFyMjkwggl2F91aMNUPwlGf0j5gQgEy/AwuaJdCUvQ5N2RudaaR3AqDjM0Cbnv3kiWE5eb0Hl0LGvhQ3ll8C+Xt8Ups6bcrvLD+bR/jPofmqgk//D8MWWfLzKTWfd5b+xdqPTscA0Tr+4PNjCgOBrLGUsQvgl2gspvbzsXAdhvVEl+g/MGmCDA8Rhq7G7LgKIs3yo2Fe/ejU2oPR8OpKcV2FANq904jePC90VoDhJJNgZwsmzgZDFEKriU0jMrDDMcdxc5Ad4OkNYOt1EGXWQav0d6icPt/ayNdFLitvh4KO6LIMoHr10gKyV4++p0E/mQ9jsKEkaAwCMQ1CnkHQSQ6Cc69+WGv0AbHlAUBftVEg5HqIKQfwuQ/174JotxMq1h0g7J2g+e2wodrcZDdu3sWDWzWRq95q9DTNANFxiTlWMkvfHnl50Pr3tBnvFgyQXE6MbkRYuVSwLBiXBbDjDJ0/D2BWMcA0HHaSNrQrNkSxyN4AvhwzKGmgttUQJsEGEHlDrmg6UBdmBzRRx/wq9IMaAY2ARkAjoBHQCGgENAIaAY2ARkAjoBHQCGgENAIaAY2ARkAj0B6B/w+5DwUfvccQ6wAAAABJRU5ErkJggg==;fontStyle=1" parent="1" vertex="1">
          <mxGeometry x="570" y="-333" width="80" height="80" as="geometry" />
        </mxCell>
        <mxCell id="zJlWKfVEMl9Gut1a5waf-1" value="&lt;b&gt;AWS Step Functions state machine&lt;/b&gt;" style="sketch=0;outlineConnect=0;gradientColor=none;html=1;whiteSpace=wrap;fontSize=12;fontStyle=0;shape=mxgraph.aws4.group;grIcon=mxgraph.aws4.group_aws_step_functions_workflow;strokeColor=#545B64;fillColor=none;verticalAlign=top;align=left;spacingLeft=30;fontColor=#545B64;dashed=0;strokeWidth=2;" parent="1" vertex="1">
          <mxGeometry x="90" y="-733" width="260" height="220" as="geometry" />
        </mxCell>
        <mxCell id="zJlWKfVEMl9Gut1a5waf-20" style="edgeStyle=orthogonalEdgeStyle;rounded=0;orthogonalLoop=1;jettySize=auto;html=1;strokeWidth=2;" parent="1" source="zJlWKfVEMl9Gut1a5waf-2" target="zJlWKfVEMl9Gut1a5waf-3" edge="1">
          <mxGeometry relative="1" as="geometry" />
        </mxCell>
        <mxCell id="zJlWKfVEMl9Gut1a5waf-2" value="&lt;b&gt;&lt;i&gt;loader&lt;/i&gt; Lambda function lists&amp;nbsp;&lt;span style=&quot;background-color: initial;&quot;&gt;Lambda&amp;nbsp;&lt;/span&gt;&lt;/b&gt;&lt;div&gt;&lt;b&gt;&lt;span style=&quot;background-color: initial;&quot;&gt;functions and&amp;nbsp;&lt;/span&gt;&lt;span style=&quot;background-color: initial;&quot;&gt;CloudWatch&amp;nbsp;&lt;/span&gt;&lt;span style=&quot;background-color: initial;&quot;&gt;log groups&amp;nbsp;&lt;/span&gt;&lt;/b&gt;&lt;/div&gt;&lt;div&gt;&lt;span style=&quot;background-color: initial;&quot;&gt;&lt;b&gt;and pushes them to an SQS queue&lt;/b&gt;&lt;/span&gt;&lt;/div&gt;" style="sketch=0;outlineConnect=0;fontColor=#232F3E;gradientColor=none;fillColor=#ED7100;strokeColor=none;dashed=0;verticalLabelPosition=bottom;verticalAlign=top;align=center;html=1;fontSize=12;fontStyle=0;aspect=fixed;pointerEvents=1;shape=mxgraph.aws4.lambda_function;" parent="1" vertex="1">
          <mxGeometry x="184" y="-683" width="80" height="80" as="geometry" />
        </mxCell>
        <mxCell id="zJlWKfVEMl9Gut1a5waf-21" style="edgeStyle=orthogonalEdgeStyle;rounded=0;orthogonalLoop=1;jettySize=auto;html=1;exitX=1;exitY=0.5;exitDx=0;exitDy=0;exitPerimeter=0;strokeWidth=2;" parent="1" source="zJlWKfVEMl9Gut1a5waf-3" target="zJlWKfVEMl9Gut1a5waf-4" edge="1">
          <mxGeometry relative="1" as="geometry" />
        </mxCell>
        <mxCell id="zJlWKfVEMl9Gut1a5waf-3" value="&lt;b&gt;SQS queue holds Lambda&amp;nbsp;&lt;/b&gt;&lt;div&gt;&lt;b&gt;functions&amp;nbsp;&lt;span style=&quot;background-color: initial;&quot;&gt;and CloudWatch log groups&lt;/span&gt;&lt;/b&gt;&lt;/div&gt;" style="sketch=0;points=[[0,0,0],[0.25,0,0],[0.5,0,0],[0.75,0,0],[1,0,0],[0,1,0],[0.25,1,0],[0.5,1,0],[0.75,1,0],[1,1,0],[0,0.25,0],[0,0.5,0],[0,0.75,0],[1,0.25,0],[1,0.5,0],[1,0.75,0]];outlineConnect=0;fontColor=#232F3E;fillColor=#E7157B;strokeColor=#ffffff;dashed=0;verticalLabelPosition=bottom;verticalAlign=top;align=center;html=1;fontSize=12;fontStyle=0;aspect=fixed;shape=mxgraph.aws4.resourceIcon;resIcon=mxgraph.aws4.sqs;" parent="1" vertex="1">
          <mxGeometry x="450" y="-683" width="80" height="80" as="geometry" />
        </mxCell>
        <mxCell id="zJlWKfVEMl9Gut1a5waf-4" value="&lt;b&gt;&lt;i&gt;worker&lt;/i&gt; Lambda function polls the&amp;nbsp;&lt;/b&gt;&lt;div&gt;&lt;b&gt;SQS&amp;nbsp;&lt;/b&gt;&lt;b style=&quot;background-color: initial;&quot;&gt;queue, calculates savings, and&lt;/b&gt;&lt;div&gt;&lt;b&gt;pushes the results to Firehose&lt;/b&gt;&lt;/div&gt;&lt;/div&gt;" style="sketch=0;outlineConnect=0;fontColor=#232F3E;gradientColor=none;fillColor=#ED7100;strokeColor=none;dashed=0;verticalLabelPosition=bottom;verticalAlign=top;align=center;html=1;fontSize=12;fontStyle=0;aspect=fixed;pointerEvents=1;shape=mxgraph.aws4.lambda_function;" parent="1" vertex="1">
          <mxGeometry x="700" y="-683" width="80" height="80" as="geometry" />
        </mxCell>
        <mxCell id="zJlWKfVEMl9Gut1a5waf-23" style="edgeStyle=orthogonalEdgeStyle;rounded=0;orthogonalLoop=1;jettySize=auto;html=1;exitX=0;exitY=0.5;exitDx=0;exitDy=0;exitPerimeter=0;entryX=1;entryY=0.5;entryDx=0;entryDy=0;strokeWidth=2;" parent="1" source="zJlWKfVEMl9Gut1a5waf-5" target="wKkd2Ftk299Nv-PwKDOf-13" edge="1">
          <mxGeometry relative="1" as="geometry" />
        </mxCell>
        <mxCell id="zJlWKfVEMl9Gut1a5waf-5" value="&lt;b&gt;Athena is used to query&lt;/b&gt;&lt;div&gt;&lt;b&gt;memory metrics and cost savings&lt;/b&gt;&lt;/div&gt;" style="sketch=0;points=[[0,0,0],[0.25,0,0],[0.5,0,0],[0.75,0,0],[1,0,0],[0,1,0],[0.25,1,0],[0.5,1,0],[0.75,1,0],[1,1,0],[0,0.25,0],[0,0.5,0],[0,0.75,0],[1,0.25,0],[1,0.5,0],[1,0.75,0]];outlineConnect=0;fontColor=#232F3E;fillColor=#8C4FFF;strokeColor=#ffffff;dashed=0;verticalLabelPosition=bottom;verticalAlign=top;align=center;html=1;fontSize=12;fontStyle=0;aspect=fixed;shape=mxgraph.aws4.resourceIcon;resIcon=mxgraph.aws4.glue;" parent="1" vertex="1">
          <mxGeometry x="780" y="-333" width="80" height="80" as="geometry" />
        </mxCell>
        <mxCell id="zJlWKfVEMl9Gut1a5waf-24" style="edgeStyle=orthogonalEdgeStyle;rounded=0;orthogonalLoop=1;jettySize=auto;html=1;exitX=1;exitY=0.5;exitDx=0;exitDy=0;exitPerimeter=0;entryX=0;entryY=0.5;entryDx=0;entryDy=0;strokeWidth=2;" parent="1" source="zJlWKfVEMl9Gut1a5waf-6" target="wKkd2Ftk299Nv-PwKDOf-13" edge="1">
          <mxGeometry relative="1" as="geometry" />
        </mxCell>
        <mxCell id="zJlWKfVEMl9Gut1a5waf-6" value="&lt;b&gt;Glue database and table&lt;/b&gt;&lt;div&gt;&lt;b&gt;built on top of S3&lt;/b&gt;&lt;/div&gt;" style="sketch=0;points=[[0,0,0],[0.25,0,0],[0.5,0,0],[0.75,0,0],[1,0,0],[0,1,0],[0.25,1,0],[0.5,1,0],[0.75,1,0],[1,1,0],[0,0.25,0],[0,0.5,0],[0,0.75,0],[1,0.25,0],[1,0.5,0],[1,0.75,0]];outlineConnect=0;fontColor=#232F3E;fillColor=#8C4FFF;strokeColor=#ffffff;dashed=0;verticalLabelPosition=bottom;verticalAlign=top;align=center;html=1;fontSize=12;fontStyle=0;aspect=fixed;shape=mxgraph.aws4.resourceIcon;resIcon=mxgraph.aws4.athena;" parent="1" vertex="1">
          <mxGeometry x="360" y="-333" width="80" height="80" as="geometry" />
        </mxCell>
        <mxCell id="zJlWKfVEMl9Gut1a5waf-7" value="&lt;b&gt;Firehose batches records, transforms&lt;/b&gt;&lt;div&gt;&lt;b&gt;them into Parquet, and writes data to S3&lt;/b&gt;&lt;/div&gt;" style="sketch=0;points=[[0,0,0],[0.25,0,0],[0.5,0,0],[0.75,0,0],[1,0,0],[0,1,0],[0.25,1,0],[0.5,1,0],[0.75,1,0],[1,1,0],[0,0.25,0],[0,0.5,0],[0,0.75,0],[1,0.25,0],[1,0.5,0],[1,0.75,0]];outlineConnect=0;fontColor=#232F3E;fillColor=#8C4FFF;strokeColor=#ffffff;dashed=0;verticalLabelPosition=bottom;verticalAlign=top;align=center;html=1;fontSize=12;fontStyle=0;aspect=fixed;shape=mxgraph.aws4.resourceIcon;resIcon=mxgraph.aws4.kinesis_data_firehose;" parent="1" vertex="1">
          <mxGeometry x="570" y="-503" width="80" height="80" as="geometry" />
        </mxCell>
        <mxCell id="zJlWKfVEMl9Gut1a5waf-22" style="edgeStyle=orthogonalEdgeStyle;rounded=0;orthogonalLoop=1;jettySize=auto;html=1;entryX=1;entryY=0.5;entryDx=0;entryDy=0;entryPerimeter=0;strokeWidth=2;" parent="1" source="zJlWKfVEMl9Gut1a5waf-4" target="zJlWKfVEMl9Gut1a5waf-7" edge="1">
          <mxGeometry relative="1" as="geometry">
            <Array as="points">
              <mxPoint x="870" y="-643" />
              <mxPoint x="870" y="-463" />
            </Array>
          </mxGeometry>
        </mxCell>
        <mxCell id="zJlWKfVEMl9Gut1a5waf-25" value="" style="endArrow=classic;html=1;rounded=0;entryX=0.5;entryY=0;entryDx=0;entryDy=0;strokeWidth=2;" parent="1" target="wKkd2Ftk299Nv-PwKDOf-13" edge="1">
          <mxGeometry width="50" height="50" relative="1" as="geometry">
            <mxPoint x="610" y="-383" as="sourcePoint" />
            <mxPoint x="680" y="-416" as="targetPoint" />
          </mxGeometry>
        </mxCell>
      </root>
    </mxGraphModel>
  </diagram>
</mxfile>
